<?xml version="1.0" encoding="UTF-8"?>
<svg width="1200pt" height="1200pt" version="1.1" viewBox="0 0 1200 1200" xmlns="http://www.w3.org/2000/svg">
 <path d="m134.48 574.84c3.7969 34.457 23.391 65.191 53.023 83.176v316.99c0 29.836 11.852 58.453 32.949 79.551 21.098 21.098 49.715 32.949 79.551 32.949h600c29.836 0 58.453-11.852 79.551-32.949 21.098-21.098 32.949-49.715 32.949-79.551v-316.99c29.613-17.93 49.199-48.613 52.988-83.023l21.414-187.5h-0.003906c3.4297-31.629-6.7539-63.219-28.012-86.887-21.75-24.262-52.801-38.117-85.387-38.102h-148.5v-37.5c0-29.836-11.852-58.453-32.949-79.551-21.098-21.098-49.715-32.949-79.551-32.949h-225c-29.836 0-58.453 11.852-79.551 32.949-21.098 21.098-32.949 49.715-32.949 79.551v37.5h-148.5c-32.566-0.046875-63.617 13.766-85.387 37.988-21.281 23.695-31.457 55.34-27.977 87zm803.02 400.16c0 9.9453-3.9492 19.484-10.984 26.516-7.0312 7.0352-16.57 10.984-26.516 10.984h-600c-9.9453 0-19.484-3.9492-26.516-10.984-7.0352-7.0312-10.984-16.57-10.984-26.516v-300h225c0 40.191 21.441 77.332 56.25 97.43 34.809 20.094 77.691 20.094 112.5 0 34.809-20.098 56.25-57.238 56.25-97.43h225zm-300-300c0 13.398-7.1484 25.777-18.75 32.477-11.602 6.6992-25.898 6.6992-37.5 0-11.602-6.6992-18.75-19.078-18.75-32.477v-75c0-13.398 7.1484-25.777 18.75-32.477 11.602-6.6992 25.898-6.6992 37.5 0 11.602 6.6992 18.75 19.078 18.75 32.477zm-187.5-450c0-9.9453 3.9492-19.484 10.984-26.516 7.0312-7.0352 16.57-10.984 26.516-10.984h225c9.9453 0 19.484 3.9492 26.516 10.984 7.0352 7.0312 10.984 16.57 10.984 26.516v37.5h-300zm-253.05 125.55c7.5117-8.4062 18.281-13.16 29.551-13.051h747c11.27-0.10938 22.039 4.6445 29.551 13.051 7.0391 7.7148 10.438 18.074 9.3359 28.461l-21.414 187.69h0.003906c-1.3398 9.3203-6.0156 17.832-13.16 23.961-7.1484 6.125-16.277 9.4453-25.691 9.3398h-239.62c0-40.191-21.441-77.332-56.25-97.43-34.809-20.094-77.691-20.094-112.5 0-34.809 20.098-56.25 57.238-56.25 97.43h-239.62c-9.4453 0.097656-18.602-3.2461-25.762-9.4102-7.1562-6.1641-11.824-14.723-13.125-24.078l-21.336-187.5h-0.003906c-1.1094-10.379 2.2773-20.738 9.3008-28.461z" fill="#fff"/>
</svg>
