<?xml version="1.0" encoding="UTF-8"?>
<svg width="1200pt" height="1200pt" version="1.1" viewBox="0 0 1200 1200" xmlns="http://www.w3.org/2000/svg">
 <g fill="#fff">
  <path d="m912.47 284.55c0-50.68-41.082-91.762-91.762-91.762h-629.04c-49.93 0-90.414 40.48-90.414 90.414v802.97c0 49.93 40.48 90.414 90.414 90.414h630.39c49.93 0 90.414-40.48 90.414-90.414l-0.003906-750.62zm-68.023 84.992v686.91c0 28.762-23.324 52.086-52.086 52.086l-571 0.003906c-28.762 0-52.086-23.324-52.086-52.086l-0.003906-743.57c0-28.762 23.324-52.086 52.086-52.086h569.83c28.352 0 51.488 22.668 52.07 51.02z"/>
  <path d="m718.52 456.82h-423.3c-14.457 0-26.156-11.719-26.156-26.156 0-14.457 11.719-26.156 26.156-26.156h423.3c14.457 0 26.156 11.719 26.156 26.156s-11.719 26.156-26.156 26.156z"/>
  <path d="m718.52 583.82h-423.3c-14.457 0-26.156-11.719-26.156-26.156 0-14.457 11.719-26.156 26.156-26.156h423.3c14.457 0 26.156 11.719 26.156 26.156 0 14.453-11.719 26.156-26.156 26.156z"/>
  <path d="m718.52 710.83h-423.3c-14.457 0-26.156-11.719-26.156-26.156s11.719-26.156 26.156-26.156h423.3c14.457 0 26.156 11.719 26.156 26.156s-11.719 26.156-26.156 26.156z"/>
  <path d="m718.52 837.82h-423.3c-14.457 0-26.156-11.719-26.156-26.156s11.719-26.156 26.156-26.156h423.3c14.457 0 26.156 11.719 26.156 26.156s-11.719 26.156-26.156 26.156z"/>
  <path d="m718.52 964.84h-423.3c-14.457 0-26.156-11.719-26.156-26.156s11.719-26.156 26.156-26.156h423.3c14.457 0 26.156 11.719 26.156 26.156s-11.719 26.156-26.156 26.156z"/>
  <path d="m1007 23.438h-629.04c-49.93 0-90.414 40.48-90.414 90.414v36.602h68.023v-6.9023c0-28.762 23.324-52.086 52.086-52.086h569.83c28.352 0 51.488 22.668 52.07 51.02l1.1797 57.73v686.91c0 28.762-23.324 52.086-52.086 52.086h-23.832v68.023h53.531c49.93 0 90.414-40.48 90.414-90.414l0.003906-750.62v-51c0-50.68-41.082-91.762-91.762-91.762z"/>
 </g>
</svg>
