<?xml version="1.0" encoding="UTF-8"?>
<svg width="1200pt" height="1200pt" version="1.1" viewBox="0 0 1200 1200" xmlns="http://www.w3.org/2000/svg">
 <path d="m1054 762-102.5-102.5c-55.5-55.5-152-55.5-207.5 0l-34 34c-18 18-48 18-66 0l-136.5-136.5c-18-18-18-48 0-66l34-34c57-57 57-150 0-207.5l-102.5-102.5c-55.5-55.5-152-55.5-207.5 0l-84 84c-35 35-50 85-40 134 33.5 167 126 333.5 260.5 468s300.5 227 468 260.5c10 2 19.5 3 29.5 3 39 0 76.5-15 104-43l84-84c27.5-27.5 43-64.5 43-103.5s-15.5-76-43-103.5zm-70.5 136.5-84 84c-11 11-27.5 16-43.5 12.5-148-29.5-296-112.5-417-233.5s-203-268.5-233-416.5c-3-16 1.5-32 12.5-43.5l84-84c9-9 20.5-13.5 33-13.5s24 5 33 13.5l102.5 102.5c18 18 18 48 0 66l-34 34c-57 57-57 150 0 207.5l136.5 136.5c57 57 150 57 207.5 0l34-34c18-18 47.5-18 66 0l102.5 102.5c9 8.5 13.5 20.5 13.5 33s-5 24-13.5 33z" fill="#fff"/>
</svg>
